<svg xmlns="http://www.w3.org/2000/svg" xmlns:xlink="http://www.w3.org/1999/xlink" width="480" zoomAndPan="magnify" viewBox="0 0 360 72" height="96" preserveAspectRatio="xMidYMid meet" version="1.0"><defs><g/><clipPath id="c7d45e8167"><rect x="0" width="165" y="0" height="72"/></clipPath><clipPath id="2ba01fc135"><rect x="0" width="127" y="0" height="72"/></clipPath></defs><g transform="matrix(1, 0, 0, 1, 30, -0.000000000000001479)"><g clip-path="url(#c7d45e8167)"><g fill="#000000" fill-opacity="1"><g transform="translate(0.489874, 58.747191)"><g><path d="M 31.25 -21.875 C 32.050781 -21.519531 32.851562 -20.800781 33.65625 -19.71875 C 35.257812 -17.59375 36.0625 -14.765625 36.0625 -11.234375 C 36.0625 -6.953125 34.195312 -3.789062 30.46875 -1.75 C 28.59375 -0.738281 26.710938 -0.15625 24.828125 0 L 3.609375 0 L 3.609375 -39.078125 L 21.703125 -39.078125 C 23.179688 -39.078125 24.765625 -38.753906 26.453125 -38.109375 C 29.773438 -36.828125 31.894531 -34.601562 32.8125 -31.4375 C 33.5 -29.15625 33.441406 -26.867188 32.640625 -24.578125 C 32.234375 -23.460938 31.769531 -22.5625 31.25 -21.875 Z M 12.984375 -31.796875 L 12.984375 -23.078125 L 21.34375 -23.078125 C 22.539062 -23.078125 23.582031 -23.5 24.46875 -24.34375 C 25.3125 -25.1875 25.734375 -26.207031 25.734375 -27.40625 C 25.734375 -28.644531 25.3125 -29.6875 24.46875 -30.53125 C 23.582031 -31.375 22.539062 -31.796875 21.34375 -31.796875 Z M 28.734375 -11.546875 C 28.734375 -12.742188 28.3125 -13.785156 27.46875 -14.671875 C 26.625 -15.503906 25.601562 -15.921875 24.40625 -15.921875 L 12.984375 -15.921875 L 12.984375 -7.21875 L 24.40625 -7.21875 C 25.601562 -7.21875 26.625 -7.632812 27.46875 -8.46875 C 28.3125 -9.3125 28.734375 -10.335938 28.734375 -11.546875 Z M 28.734375 -11.546875 "/></g></g></g><g fill="#000000" fill-opacity="1"><g transform="translate(38.355217, 58.747191)"><g><path d="M 10.21875 -26.328125 C 10.894531 -28.253906 12.035156 -29.597656 13.640625 -30.359375 C 15.203125 -31.117188 17.546875 -31.5 20.671875 -31.5 L 20.671875 -22.90625 C 17.628906 -22.90625 15.085938 -21.863281 13.046875 -19.78125 C 11.160156 -17.9375 10.21875 -15.910156 10.21875 -13.703125 L 10.21875 0 L 1.796875 0 L 1.796875 -30.953125 L 10.21875 -30.953125 Z M 10.21875 -26.328125 "/></g></g></g><g fill="#000000" fill-opacity="1"><g transform="translate(59.331418, 58.747191)"><g><path d="M 24.046875 -31.078125 L 32.453125 -31.078125 L 32.453125 0 L 24.046875 0 L 24.046875 -3.484375 C 22.316406 -1.242188 19.710938 -0.125 16.234375 -0.125 C 11.984375 -0.0820312 8.335938 -1.5625 5.296875 -4.5625 C 2.242188 -7.570312 0.695312 -11.222656 0.65625 -15.515625 C 0.613281 -19.753906 2.097656 -23.398438 5.109375 -26.453125 C 8.117188 -29.492188 11.765625 -31.035156 16.046875 -31.078125 C 19.578125 -31.078125 22.242188 -29.9375 24.046875 -27.65625 Z M 21.515625 -10.21875 C 23.003906 -11.695312 23.75 -13.5 23.75 -15.625 C 23.75 -17.789062 22.984375 -19.59375 21.453125 -21.03125 C 19.929688 -22.5625 18.148438 -23.285156 16.109375 -23.203125 C 13.984375 -23.203125 12.179688 -22.460938 10.703125 -20.984375 C 9.210938 -19.492188 8.46875 -17.6875 8.46875 -15.5625 C 8.46875 -13.476562 9.234375 -11.675781 10.765625 -10.15625 C 12.242188 -8.675781 14.046875 -7.9375 16.171875 -7.9375 C 18.335938 -8.007812 20.117188 -8.769531 21.515625 -10.21875 Z M 21.515625 -10.21875 "/></g></g></g><g fill="#000000" fill-opacity="1"><g transform="translate(93.590534, 58.747191)"><g><path d="M 17.1875 -30.84375 C 21.59375 -31.195312 25.238281 -30.050781 28.125 -27.40625 C 31.21875 -24.5625 32.765625 -20.578125 32.765625 -15.453125 L 32.765625 0 L 24.953125 0 L 24.953125 -15.265625 L 24.890625 -15.265625 L 24.890625 -15.390625 C 24.890625 -17.515625 24.144531 -19.316406 22.65625 -20.796875 C 21.175781 -22.273438 19.375 -23.015625 17.25 -23.015625 C 15.082031 -22.941406 13.28125 -22.179688 11.84375 -20.734375 C 10.320312 -19.210938 9.597656 -17.410156 9.671875 -15.328125 L 9.671875 -15.265625 L 9.625 -15.265625 L 9.625 0 L 1.203125 0 L 1.203125 -31.078125 L 9.625 -31.078125 L 9.625 -27.046875 C 11.5 -29.296875 14.019531 -30.5625 17.1875 -30.84375 Z M 17.1875 -30.84375 "/></g></g></g><g fill="#000000" fill-opacity="1"><g transform="translate(127.549147, 58.747191)"><g><path d="M 26.03125 0 L 26.03125 -3.546875 C 23.144531 -1.179688 19.878906 0 16.234375 0 C 11.984375 0.0390625 8.335938 -1.441406 5.296875 -4.453125 C 2.242188 -7.453125 0.695312 -11.097656 0.65625 -15.390625 C 0.613281 -19.640625 2.097656 -23.285156 5.109375 -26.328125 C 8.117188 -29.367188 11.765625 -30.910156 16.046875 -30.953125 C 19.773438 -30.953125 23.082031 -29.769531 25.96875 -27.40625 L 25.96875 -41.953125 L 34.375 -41.953125 L 34.4375 0 Z M 21.578125 -10.09375 C 23.054688 -11.582031 23.796875 -13.390625 23.796875 -15.515625 C 23.722656 -17.671875 22.960938 -19.472656 21.515625 -20.921875 C 19.992188 -22.359375 18.191406 -23.078125 16.109375 -23.078125 C 13.984375 -23.078125 12.179688 -22.335938 10.703125 -20.859375 C 9.210938 -19.210938 8.488281 -17.410156 8.53125 -15.453125 C 8.53125 -13.328125 9.273438 -11.519531 10.765625 -10.03125 C 12.242188 -8.550781 14.046875 -7.8125 16.171875 -7.8125 C 18.335938 -7.894531 20.140625 -8.65625 21.578125 -10.09375 Z M 21.578125 -10.09375 "/></g></g></g></g></g><g transform="matrix(1, 0, 0, 1, 195, -0.000000000000001479)"><g clip-path="url(#2ba01fc135)"><g fill="#1f48ff" fill-opacity="1"><g transform="translate(1.754538, 53.96912)"><g><path d="M 23.640625 -0.0625 L 23.640625 -8.453125 C 21.242188 -5.660156 18.800781 -4.265625 16.3125 -4.265625 C 11.5625 -4.265625 7.203125 -8.101562 3.234375 -15.78125 C 2.398438 -17.382812 2.910156 -19.304688 4.765625 -21.546875 C 6.628906 -23.785156 8.878906 -25.539062 11.515625 -26.8125 C 14.160156 -28.09375 16.0625 -28.351562 17.21875 -27.59375 C 19.21875 -26.113281 21.359375 -24.65625 23.640625 -23.21875 L 23.640625 -31.375 L -0.484375 -31.375 L -0.484375 -37.140625 L 35.640625 -37.140625 L 35.640625 -31.375 L 31.140625 -31.375 L 31.140625 3.296875 Z M 9.0625 -12.0625 C 9.5 -11.539062 10.15625 -11.097656 11.03125 -10.734375 C 11.914062 -10.378906 13.097656 -10.238281 14.578125 -10.3125 C 16.054688 -10.394531 17.515625 -10.878906 18.953125 -11.765625 L 11.515625 -18.90625 C 10.160156 -17.738281 9.242188 -16.492188 8.765625 -15.171875 C 8.285156 -13.859375 8.382812 -12.820312 9.0625 -12.0625 Z M 20.703125 -13.078125 C 21.859375 -14.078125 22.835938 -15.140625 23.640625 -16.265625 L 23.640625 -20.046875 C 20.316406 -22.117188 16.894531 -22.15625 13.375 -20.15625 Z M 20.703125 -13.078125 "/></g></g></g><g fill="#1f48ff" fill-opacity="1"><g transform="translate(37.035901, 53.96912)"><g><path d="M 34.375 -0.0625 L 34.375 -16.984375 C 31.539062 -15.859375 28.265625 -15.816406 24.546875 -16.859375 C 26.222656 -15.492188 28.203125 -13.710938 30.484375 -11.515625 C 30.878906 -11.117188 31.085938 -10.457031 31.109375 -9.53125 C 31.128906 -8.613281 30.910156 -7.59375 30.453125 -6.46875 C 29.992188 -5.351562 29.34375 -4.273438 28.5 -3.234375 C 27.65625 -2.203125 26.472656 -1.304688 24.953125 -0.546875 C 23.441406 0.210938 21.742188 0.65625 19.859375 0.78125 C 24.535156 4.625 27.914062 7.222656 30 8.578125 L 27.65625 11.09375 C 23.414062 7.175781 19.554688 3.78125 16.078125 0.90625 C 15.835938 0.90625 15.15625 0.960938 14.03125 1.078125 C 12.914062 1.203125 12.097656 1.265625 11.578125 1.265625 C 11.054688 1.265625 10.363281 1.265625 9.5 1.265625 C 8.644531 1.265625 7.957031 1.171875 7.4375 0.984375 C 6.914062 0.804688 6.5 0.554688 6.1875 0.234375 C 3.863281 -1.765625 2.703125 -3.625 2.703125 -5.34375 C 2.703125 -5.820312 3.179688 -6.519531 4.140625 -7.4375 C 5.097656 -8.351562 6.054688 -8.9375 7.015625 -9.1875 C 7.816406 -8.78125 9.859375 -7.28125 13.140625 -4.6875 C 15.503906 -4.195312 17.84375 -4.441406 20.15625 -5.421875 C 22.476562 -6.410156 24.128906 -7.660156 25.109375 -9.171875 C 26.085938 -10.691406 26.078125 -11.953125 25.078125 -12.953125 C 24.441406 -13.597656 23.472656 -13.71875 22.171875 -13.3125 C 20.867188 -12.914062 19.578125 -12.316406 18.296875 -11.515625 C 17.015625 -10.710938 15.691406 -10.101562 14.328125 -9.6875 C 12.972656 -9.269531 11.9375 -9.34375 11.21875 -9.90625 C 6.894531 -13.425781 4.015625 -15.960938 2.578125 -17.515625 C 1.859375 -18.554688 1.617188 -19.835938 1.859375 -21.359375 C 2.097656 -22.878906 2.726562 -24.328125 3.75 -25.703125 C 4.769531 -27.085938 5.800781 -27.820312 6.84375 -27.90625 L 16.625 -28.5625 L 16.625 -31.375 L -0.359375 -31.375 L -0.359375 -37.140625 L 46.375 -37.140625 L 46.375 -31.375 L 41.8125 -31.375 L 41.8125 3.296875 Z M 22.265625 -18.65625 C 24.941406 -18.132812 27.398438 -18.472656 29.640625 -19.671875 C 31.878906 -20.878906 33.457031 -22.382812 34.375 -24.1875 L 34.375 -31.375 L 23.28125 -31.375 L 23.453125 -22.859375 L 11.28125 -22.859375 C 10.363281 -22.859375 9.601562 -22.117188 9 -20.640625 C 8.28125 -18.835938 8.320312 -17.4375 9.125 -16.4375 C 9.675781 -15.757812 10.570312 -15.582031 11.8125 -15.90625 C 12.414062 -16.0625 13.597656 -16.4375 15.359375 -17.03125 C 17.117188 -17.632812 18.628906 -18.101562 19.890625 -18.4375 C 21.148438 -18.78125 21.921875 -18.875 22.203125 -18.71875 C 22.203125 -18.675781 22.222656 -18.65625 22.265625 -18.65625 Z M 22.265625 -18.65625 "/></g></g></g><g fill="#1f48ff" fill-opacity="1"><g transform="translate(82.877669, 53.96912)"><g><path d="M -0.296875 -31.375 L -0.296875 -37.140625 L 16.3125 -37.140625 L 16.3125 -31.375 L 11.703125 -31.375 L 11.703125 3.359375 L 4.265625 0 L 4.265625 -31.375 Z M -0.296875 -31.375 "/></g></g></g><g fill="#1f48ff" fill-opacity="1"><g transform="translate(99.018289, 53.96912)"><g><path d="M -0.546875 -31.375 L -0.546875 -37.140625 L 26.765625 -37.140625 L 26.765625 -31.375 L 18.84375 -31.375 C 20.71875 -28.539062 21.785156 -25.671875 22.046875 -22.765625 C 22.304688 -19.867188 21.625 -17.179688 20 -14.703125 C 18.382812 -12.222656 15.898438 -10.363281 12.546875 -9.125 C 15.460938 -4.882812 19.597656 -1.441406 24.953125 1.203125 L 23.28125 3.359375 C 21.4375 2.316406 19.84375 1.363281 18.5 0.5 C 17.164062 -0.351562 15.554688 -1.476562 13.671875 -2.875 C 11.796875 -4.28125 10.1875 -5.648438 8.84375 -6.984375 C 7.507812 -8.328125 6.203125 -9.914062 4.921875 -11.75 C 3.640625 -13.59375 2.660156 -15.476562 1.984375 -17.40625 C 2.859375 -19.925781 3.773438 -21.742188 4.734375 -22.859375 C 5.097656 -23.296875 5.757812 -23.273438 6.71875 -22.796875 C 7.675781 -22.316406 8.535156 -21.71875 9.296875 -21 C 9.578125 -20.71875 9.828125 -20.003906 10.046875 -18.859375 C 10.265625 -17.722656 10.492188 -16.875 10.734375 -16.3125 C 12.335938 -16.832031 13.578125 -17.660156 14.453125 -18.796875 C 15.335938 -19.941406 15.859375 -21.234375 16.015625 -22.671875 C 16.179688 -24.117188 16.148438 -25.5625 15.921875 -27 C 15.703125 -28.4375 15.316406 -29.894531 14.765625 -31.375 Z M -0.546875 -31.375 "/></g></g></g></g></g></svg>